<svg
        width="48"
        height="43"
        viewBox="0 0 48 43"
        fill="none"
        xmlns="http://www.w3.org/2000/svg"
>
    <path
            d="M32.5386 0.0422502C29.7781 -0.357962 26.8539 2.67894 26.0117 6.86939C25.1696 11.0363 26.6902 14.7559 29.4506 15.1797C32.1877 15.6034 35.1353 12.5665 36.0008 8.37607C36.8664 4.20916 35.299 0.489546 32.5386 0.0422502ZM15.8121 0.0422502C13.0283 0.489546 11.4843 4.20916 12.3031 8.37607C13.192 12.5665 16.1162 15.6034 18.8767 15.1797C21.6605 14.7559 23.1811 11.0363 22.3156 6.86939C21.4734 2.67894 18.5492 -0.357962 15.8121 0.0422502ZM45.0542 10.8715C42.3873 9.71796 38.7613 11.8132 36.8664 15.4622C35.0885 19.1818 35.6967 23.0897 38.3402 24.2433C40.9837 25.3968 44.5863 23.3252 46.4344 19.6291C48.2825 15.933 47.6275 12.0015 45.0542 10.8715ZM2.94563 10.8715C0.372334 12.0015 -0.282688 15.933 1.56541 19.6291C3.4135 23.3252 7.01612 25.3968 9.65961 24.2433C12.3031 23.0897 12.9113 19.1818 11.1334 15.4622C9.23852 11.8132 5.61251 9.71796 2.94563 10.8715ZM6.85237 36.2496C6.75879 38.4626 8.44313 40.9109 10.455 41.8291C14.6424 43.7595 19.6019 39.7574 24.2572 39.7574C28.9126 39.7574 33.9188 43.9243 38.0361 41.8291C40.3754 40.6755 41.9896 37.6151 41.6855 35.0725C41.2644 31.5648 37.0769 29.6815 34.5972 27.1154C31.2987 23.796 28.9593 17.5574 24.2572 17.5574C19.5785 17.5574 17.0988 23.7018 13.9406 27.1154C11.3439 29.9875 7.01612 32.4123 6.85237 36.2496Z"
            fill="white"
    />
</svg>