<svg
        width="46"
        height="14"
        viewBox="0 0 46 14"
        fill="none"
        xmlns="http://www.w3.org/2000/svg"
>
    <path
            d="M7.13048 6.55451C7.13048 7.68387 6.86934 8.59377 6.34708 9.28419C5.82481 9.97461 5.11767 10.3198 4.22566 10.3198C3.31516 10.3198 2.59877 10.034 2.0765 9.46251V13.0358H0.793945V2.76177H1.96558L2.02797 3.58479C2.55024 2.94466 3.27587 2.6246 4.20486 2.6246C5.10612 2.6246 5.81788 2.96066 6.34014 3.63279C6.86703 4.30493 7.13048 5.23997 7.13048 6.43791V6.55451ZM5.84792 6.41048C5.84792 5.57375 5.66767 4.91305 5.30716 4.42838C4.94666 3.94371 4.45213 3.70138 3.82356 3.70138C3.04709 3.70138 2.46474 4.04202 2.0765 4.72329V8.26913C2.46012 8.94583 3.04709 9.28419 3.83742 9.28419C4.45213 9.28419 4.93973 9.04414 5.30023 8.56405C5.66536 8.07938 5.84792 7.36152 5.84792 6.41048Z"
            fill="white"
    />
    <path
            d="M11.8794 10.3198C10.8626 10.3198 10.0353 9.99061 9.39749 9.3322C8.75967 8.66921 8.44077 7.78446 8.44077 6.67796V6.44477C8.44077 5.70863 8.58173 5.0525 8.86366 4.47639C9.15022 3.8957 9.5477 3.44304 10.0561 3.11841C10.5691 2.7892 11.1237 2.6246 11.72 2.6246C12.6952 2.6246 13.4531 2.94237 13.9939 3.57793C14.5347 4.21348 14.805 5.12337 14.805 6.3076V6.83571H9.72333C9.74181 7.56728 9.95673 8.15939 10.3681 8.61205C10.784 9.06014 11.3109 9.28419 11.9487 9.28419C12.4017 9.28419 12.7853 9.19274 13.0996 9.00985C13.4139 8.82695 13.6889 8.58462 13.9246 8.28285L14.708 8.88639C14.0794 9.84201 13.1365 10.3198 11.8794 10.3198ZM11.72 3.66709C11.2023 3.66709 10.7679 3.85455 10.4166 4.22948C10.0653 4.59984 9.84811 5.12109 9.76492 5.79322H13.5225V5.6972C13.4855 5.0525 13.3099 4.55412 12.9956 4.20205C12.6813 3.84541 12.2561 3.66709 11.72 3.66709Z"
            fill="white"
    />
    <path
            d="M18.0357 0.964844V2.76177H19.4361V3.74253H18.0357V8.34457C18.0357 8.64178 18.0981 8.86582 18.2229 9.01671C18.3477 9.16302 18.5603 9.23618 18.8607 9.23618C19.0086 9.23618 19.2119 9.20874 19.4708 9.15388V10.1826C19.1334 10.2741 18.8052 10.3198 18.4863 10.3198C17.9132 10.3198 17.4811 10.1484 17.1899 9.80543C16.8987 9.46251 16.7531 8.97555 16.7531 8.34457V3.74253H15.3874V2.76177H16.7531V0.964844H18.0357Z"
            fill="white"
    />
    <path
            d="M25.3081 8.21426C25.3081 7.87134 25.1764 7.60614 24.913 7.41868C24.6542 7.22664 24.1989 7.06204 23.5472 6.92487C22.9002 6.7877 22.3848 6.62309 22.0012 6.43106C21.6222 6.23902 21.3403 6.0104 21.1554 5.74521C20.9752 5.48001 20.8851 5.16452 20.8851 4.79874C20.8851 4.19062 21.1439 3.67623 21.6615 3.25558C22.1838 2.83492 22.8493 2.6246 23.6582 2.6246C24.5086 2.6246 25.1972 2.84178 25.7241 3.27615C26.2556 3.71052 26.5214 4.26606 26.5214 4.94277H25.2319C25.2319 4.59527 25.0817 4.29578 24.7813 4.0443C24.4855 3.79283 24.1111 3.66709 23.6582 3.66709C23.1913 3.66709 22.8262 3.76768 22.5628 3.96886C22.2993 4.17004 22.1676 4.43295 22.1676 4.75759C22.1676 5.06393 22.2901 5.29483 22.535 5.45029C22.78 5.60575 23.2214 5.75435 23.8592 5.89609C24.5016 6.03784 25.0216 6.20701 25.4191 6.40362C25.8165 6.60023 26.11 6.83799 26.2995 7.11691C26.4936 7.39124 26.5907 7.72731 26.5907 8.1251C26.5907 8.78809 26.3226 9.32076 25.7865 9.72313C25.2504 10.1209 24.5548 10.3198 23.6997 10.3198C23.0989 10.3198 22.5674 10.2147 22.1052 10.0043C21.643 9.794 21.2802 9.50137 21.0168 9.12644C20.758 8.74694 20.6285 8.33772 20.6285 7.89877H21.9111C21.9342 8.324 22.1052 8.66235 22.4241 8.91383C22.7477 9.16073 23.1729 9.28419 23.6997 9.28419C24.185 9.28419 24.5733 9.18817 24.8645 8.99613C25.1602 8.79952 25.3081 8.5389 25.3081 8.21426Z"
            fill="white"
    />
    <path
            d="M27.9218 6.40362C27.9218 5.67662 28.0651 5.02278 28.3516 4.4421C28.6428 3.86141 29.0449 3.41332 29.5579 3.09783C30.0756 2.78234 30.6649 2.6246 31.3258 2.6246C32.3472 2.6246 33.1722 2.97438 33.8008 3.67395C34.434 4.37351 34.7505 5.30398 34.7505 6.46535V6.55451C34.7505 7.27694 34.6096 7.92621 34.3277 8.50232C34.0503 9.07386 33.6506 9.51966 33.1283 9.83972C32.6106 10.1598 32.0144 10.3198 31.3396 10.3198C30.3228 10.3198 29.4978 9.97003 28.8646 9.27047C28.2361 8.5709 27.9218 7.64501 27.9218 6.49278V6.40362ZM29.2113 6.55451C29.2113 7.37753 29.4031 8.03823 29.7867 8.53661C30.1749 9.035 30.6926 9.28419 31.3396 9.28419C31.9913 9.28419 32.509 9.03271 32.8926 8.52975C33.2762 8.02222 33.468 7.31352 33.468 6.40362C33.468 5.58975 33.2716 4.93133 32.8787 4.42838C32.4905 3.92085 31.9728 3.66709 31.3258 3.66709C30.6926 3.66709 30.1819 3.91628 29.7936 4.41466C29.4054 4.91305 29.2113 5.62633 29.2113 6.55451Z"
            fill="white"
    />
    <path
            d="M37.5722 2.76177L37.6138 3.69452C38.1869 2.98124 38.9356 2.6246 39.86 2.6246C41.4453 2.6246 42.2449 3.50934 42.2587 5.27883V10.1826H40.9762V5.27197C40.9715 4.73701 40.8467 4.3415 40.6018 4.08545C40.3615 3.8294 39.9848 3.70138 39.4718 3.70138C39.0558 3.70138 38.6907 3.81112 38.3764 4.03059C38.0621 4.25006 37.8171 4.53811 37.6415 4.89476V10.1826H36.3589V2.76177H37.5722Z"
            fill="white"
    />
    <path
            d="M44.2207 9.51737C44.2207 9.2979 44.2854 9.11501 44.4148 8.9687C44.5488 8.82238 44.7476 8.74922 45.011 8.74922C45.2745 8.74922 45.4732 8.82238 45.6072 8.9687C45.7459 9.11501 45.8152 9.2979 45.8152 9.51737C45.8152 9.7277 45.7459 9.90374 45.6072 10.0455C45.4732 10.1872 45.2745 10.2581 45.011 10.2581C44.7476 10.2581 44.5488 10.1872 44.4148 10.0455C44.2854 9.90374 44.2207 9.7277 44.2207 9.51737Z"
            fill="white"
    />
</svg>